<svg xmlns="http://www.w3.org/2000/svg" xmlns:xlink="http://www.w3.org/1999/xlink" width="320" zoomAndPan="magnify" viewBox="0 0 240 79.499998" height="106" preserveAspectRatio="xMidYMid meet" version="1.0"><metadata><ContainsAiGeneratedContent>Yes</ContainsAiGeneratedContent></metadata><defs><clipPath id="e00206cdb5"><path d="M 0.75 0 L 239.25 0 L 239.25 79.003906 L 0.75 79.003906 Z M 0.75 0 " clip-rule="nonzero"/></clipPath></defs><g clip-path="url(#e00206cdb5)"><path fill="#ffffff" d="M 0.75 0 L 239.25 0 L 239.25 79.003906 L 0.75 79.003906 Z M 0.75 0 " fill-opacity="1" fill-rule="nonzero"/><path fill="#ffffff" d="M 0.75 0 L 239.25 0 L 239.25 79.003906 L 0.75 79.003906 Z M 0.75 0 " fill-opacity="1" fill-rule="nonzero"/></g><path fill="#4ebeee" d="M 104.199219 1.765625 L 135.648438 1.765625 L 135.648438 33.179688 L 104.199219 33.179688 Z M 104.199219 1.765625 " fill-opacity="1" fill-rule="evenodd"/><path fill="#2d2d7c" d="M 135.648438 1.765625 L 104.199219 1.765625 L 104.199219 33.179688 L 135.648438 33.179688 Z M 103.640625 0.628906 L 136.78125 0.628906 L 136.78125 34.300781 L 103.085938 34.300781 L 103.085938 0.628906 Z M 103.640625 0.628906 " fill-opacity="1" fill-rule="nonzero"/><path fill="#2d2d7c" d="M 124.675781 3.136719 L 134.214844 12.914062 L 134.128906 22.183594 L 124.675781 31.867188 L 115.375 31.867188 L 105.757812 22.183594 L 105.757812 12.832031 L 115.375 3.136719 Z M 124.675781 3.136719 " fill-opacity="1" fill-rule="evenodd"/><path fill="#ffffff" d="M 106.65625 13.160156 L 115.542969 13.160156 L 115.542969 4.136719 L 124.261719 4.136719 L 124.261719 13.160156 L 133.148438 13.160156 L 133.148438 21.855469 L 124.261719 21.855469 L 124.261719 30.878906 L 115.542969 30.878906 L 115.542969 21.855469 L 106.65625 21.855469 Z M 106.65625 13.160156 " fill-opacity="1" fill-rule="evenodd"/><path fill="#2d2d7c" d="M 123.726562 14.613281 C 124.40625 15.449219 124.808594 16.511719 124.808594 17.667969 C 124.808594 20.328125 122.664062 22.484375 120.019531 22.484375 C 118.886719 22.484375 117.84375 22.082031 117.027344 21.421875 Z M 120.03125 12.851562 C 121.1875 12.851562 122.25 13.265625 123.078125 13.953125 L 116.367188 20.773438 C 115.664062 19.9375 115.242188 18.851562 115.242188 17.667969 C 115.242188 15.007812 117.378906 12.851562 120.03125 12.851562 Z M 120.03125 12.851562 " fill-opacity="1" fill-rule="evenodd"/><path fill="#2d2d7c" d="M 171.917969 40.117188 L 178.492188 40.117188 L 186.027344 51.6875 L 185.789062 46.976562 L 185.789062 40.117188 L 192.476562 40.117188 L 192.476562 61.34375 L 185.902344 61.34375 L 178.367188 49.769531 L 178.59375 54.597656 L 178.59375 61.34375 L 171.90625 61.34375 L 171.90625 40.117188 Z M 160.695312 40.117188 L 167.675781 40.117188 L 167.675781 61.34375 L 160.695312 61.34375 Z M 129.164062 40.117188 L 135.824219 40.117188 L 138.238281 53.246094 L 138.289062 53.246094 L 140.828125 40.117188 L 146.597656 40.117188 L 149.136719 53.246094 L 149.1875 53.246094 L 151.605469 40.117188 L 158.261719 40.117188 L 153.019531 61.34375 L 146.1875 61.34375 L 143.707031 49.039062 L 143.667969 49.039062 L 141.253906 61.34375 L 134.417969 61.34375 Z M 119.785156 40.117188 L 126.761719 40.117188 L 126.761719 61.34375 L 119.785156 61.34375 Z M 103.519531 45.070312 L 103.519531 56.402344 L 105.078125 56.402344 C 106.675781 56.402344 107.894531 55.9375 108.730469 55.019531 C 109.566406 54.101562 109.988281 52.585938 109.988281 50.484375 C 109.980469 49.441406 109.886719 48.574219 109.722656 47.90625 C 109.546875 47.234375 109.265625 46.6875 108.886719 46.265625 C 108.492188 45.851562 107.964844 45.542969 107.304688 45.355469 C 106.636719 45.160156 105.777344 45.070312 104.726562 45.070312 Z M 96.53125 40.117188 L 105.695312 40.117188 C 107.996094 40.117188 109.980469 40.457031 111.652344 41.140625 C 113.332031 41.820312 114.632812 42.914062 115.574219 44.417969 C 116.511719 45.925781 116.976562 47.863281 116.976562 50.234375 C 116.976562 52.875 116.511719 55.019531 115.59375 56.671875 C 114.675781 58.320312 113.375 59.507812 111.683594 60.238281 C 110 60.96875 107.988281 61.332031 105.625 61.332031 L 96.519531 61.332031 L 96.519531 40.117188 Z M 75.597656 40.117188 L 92.917969 40.117188 L 92.917969 45.058594 L 82.574219 45.058594 L 82.574219 48.121094 L 91.289062 48.121094 L 91.289062 53.0625 L 82.574219 53.0625 L 82.574219 56.390625 L 93.332031 56.390625 L 93.332031 61.332031 L 75.597656 61.332031 Z M 55.761719 40.117188 L 59.496094 53.359375 L 63.246094 40.117188 L 71.636719 40.117188 L 71.636719 61.34375 L 65.371094 61.34375 C 65.382812 60.238281 65.382812 59.175781 65.390625 58.132812 C 65.402344 57.101562 65.410156 56.382812 65.410156 55.96875 C 65.410156 55.554688 65.421875 54.855469 65.441406 53.886719 C 65.453125 52.90625 65.464844 52.132812 65.472656 51.566406 L 65.824219 47.71875 L 65.761719 47.71875 L 61.902344 61.34375 L 57.082031 61.34375 L 53.234375 47.71875 L 53.171875 47.71875 L 53.46875 50.710938 C 53.53125 52.007812 53.5625 53.980469 53.5625 56.640625 L 53.5625 61.34375 L 47.371094 61.34375 L 47.371094 40.117188 Z M 55.761719 40.117188 " fill-opacity="1" fill-rule="nonzero"/><path fill="#6f6f6e" d="M 175.351562 73.492188 L 177.117188 73.316406 C 177.222656 73.914062 177.4375 74.347656 177.769531 74.625 C 178.089844 74.902344 178.53125 75.039062 179.078125 75.039062 C 179.667969 75.039062 180.101562 74.914062 180.398438 74.664062 C 180.699219 74.417969 180.84375 74.128906 180.84375 73.800781 C 180.84375 73.582031 180.78125 73.40625 180.660156 73.253906 C 180.535156 73.097656 180.316406 72.976562 180.007812 72.859375 C 179.800781 72.789062 179.304688 72.65625 178.554688 72.46875 C 177.582031 72.230469 176.902344 71.933594 176.507812 71.582031 C 175.953125 71.085938 175.683594 70.488281 175.683594 69.777344 C 175.683594 69.324219 175.816406 68.890625 176.074219 68.488281 C 176.332031 68.085938 176.707031 67.789062 177.199219 67.582031 C 177.6875 67.375 178.273438 67.273438 178.964844 67.273438 C 180.101562 67.273438 180.949219 67.519531 181.515625 68.015625 C 182.082031 68.507812 182.382812 69.167969 182.414062 69.996094 L 180.597656 70.078125 C 180.515625 69.613281 180.347656 69.28125 180.101562 69.078125 C 179.84375 68.871094 179.460938 68.777344 178.957031 68.777344 C 178.429688 68.777344 178.015625 68.878906 177.71875 69.097656 C 177.519531 69.230469 177.429688 69.417969 177.429688 69.652344 C 177.429688 69.871094 177.519531 70.046875 177.695312 70.199219 C 177.921875 70.394531 178.480469 70.59375 179.367188 70.796875 C 180.257812 71.003906 180.90625 71.222656 181.328125 71.449219 C 181.753906 71.675781 182.082031 71.972656 182.320312 72.367188 C 182.558594 72.757812 182.679688 73.234375 182.679688 73.800781 C 182.679688 74.316406 182.535156 74.800781 182.246094 75.242188 C 181.957031 75.695312 181.554688 76.027344 181.03125 76.242188 C 180.503906 76.460938 179.851562 76.574219 179.070312 76.574219 C 177.933594 76.574219 177.054688 76.316406 176.449219 75.789062 C 175.839844 75.253906 175.476562 74.492188 175.351562 73.492188 M 168.191406 76.410156 L 168.191406 67.5 L 170.007812 67.5 L 170.007812 74.894531 L 174.515625 74.894531 L 174.515625 76.410156 Z M 163.835938 72.851562 L 162.597656 69.519531 L 161.378906 72.851562 Z M 167.179688 76.410156 L 165.207031 76.410156 L 164.421875 74.367188 L 160.832031 74.367188 L 160.089844 76.410156 L 158.15625 76.410156 L 161.65625 67.425781 L 163.578125 67.425781 Z M 155.753906 73.109375 L 157.507812 73.664062 C 157.238281 74.644531 156.785156 75.378906 156.167969 75.851562 C 155.535156 76.328125 154.742188 76.5625 153.78125 76.5625 C 152.585938 76.5625 151.605469 76.152344 150.839844 75.347656 C 150.078125 74.53125 149.683594 73.417969 149.683594 72.003906 C 149.683594 70.511719 150.078125 69.34375 150.839844 68.519531 C 151.613281 67.695312 152.625 67.28125 153.886719 67.28125 C 154.988281 67.28125 155.878906 67.601562 156.570312 68.261719 C 156.980469 68.644531 157.28125 69.199219 157.488281 69.910156 L 155.691406 70.34375 C 155.589844 69.878906 155.359375 69.507812 155.03125 69.242188 C 154.691406 68.972656 154.289062 68.839844 153.800781 68.839844 C 153.132812 68.839844 152.59375 69.078125 152.183594 69.5625 C 151.769531 70.035156 151.5625 70.808594 151.5625 71.882812 C 151.5625 73.015625 151.769531 73.832031 152.171875 74.304688 C 152.585938 74.789062 153.109375 75.027344 153.761719 75.027344 C 154.246094 75.027344 154.660156 74.871094 155.011719 74.5625 C 155.351562 74.242188 155.597656 73.757812 155.753906 73.109375 Z M 146.453125 76.410156 L 146.453125 67.425781 L 148.269531 67.425781 L 148.269531 76.410156 Z M 140.859375 76.410156 L 140.859375 68.941406 L 138.195312 68.941406 L 138.195312 67.425781 L 145.339844 67.425781 L 145.339844 68.941406 L 142.675781 68.941406 L 142.675781 76.410156 Z M 129.753906 67.425781 L 131.570312 67.425781 L 131.570312 72.292969 C 131.570312 73.066406 131.589844 73.574219 131.644531 73.800781 C 131.726562 74.171875 131.910156 74.460938 132.199219 74.6875 C 132.488281 74.914062 132.890625 75.015625 133.398438 75.015625 C 133.914062 75.015625 134.304688 74.914062 134.5625 74.695312 C 134.820312 74.492188 134.988281 74.234375 135.039062 73.921875 C 135.089844 73.613281 135.121094 73.109375 135.121094 72.398438 L 135.121094 67.425781 L 136.9375 67.425781 L 136.9375 72.148438 C 136.9375 73.234375 136.886719 73.984375 136.792969 74.4375 C 136.691406 74.882812 136.515625 75.265625 136.246094 75.5625 C 135.976562 75.871094 135.628906 76.109375 135.195312 76.296875 C 134.75 76.480469 134.171875 76.5625 133.460938 76.5625 C 132.601562 76.5625 131.953125 76.460938 131.507812 76.265625 C 131.066406 76.070312 130.714844 75.8125 130.457031 75.492188 C 130.199219 75.171875 130.03125 74.839844 129.949219 74.492188 C 129.828125 73.976562 129.773438 73.210938 129.773438 72.210938 L 129.773438 67.425781 Z M 121.382812 76.410156 L 121.382812 67.425781 L 128.050781 67.425781 L 128.050781 68.941406 L 123.199219 68.941406 L 123.199219 70.933594 L 127.710938 70.933594 L 127.710938 72.449219 L 123.199219 72.449219 L 123.199219 74.894531 L 128.226562 74.894531 L 128.226562 76.410156 Z M 118.070312 73.109375 L 119.824219 73.664062 C 119.558594 74.644531 119.101562 75.378906 118.484375 75.851562 C 117.855469 76.328125 117.058594 76.5625 116.097656 76.5625 C 114.902344 76.5625 113.921875 76.152344 113.15625 75.347656 C 112.394531 74.53125 112 73.417969 112 72.003906 C 112 70.511719 112.394531 69.34375 113.15625 68.519531 C 113.933594 67.695312 114.941406 67.28125 116.203125 67.28125 C 117.308594 67.28125 118.195312 67.601562 118.886719 68.261719 C 119.300781 68.644531 119.597656 69.199219 119.804688 69.910156 L 118.007812 70.34375 C 117.90625 69.878906 117.679688 69.507812 117.335938 69.242188 C 116.996094 68.972656 116.59375 68.839844 116.109375 68.839844 C 115.4375 68.839844 114.902344 69.078125 114.488281 69.5625 C 114.078125 70.035156 113.871094 70.808594 113.871094 71.882812 C 113.871094 73.015625 114.078125 73.832031 114.480469 74.304688 C 114.890625 74.789062 115.417969 75.027344 116.066406 75.027344 C 116.554688 75.027344 116.964844 74.871094 117.316406 74.5625 C 117.667969 74.242188 117.914062 73.757812 118.070312 73.109375 Z M 108.007812 72.851562 L 106.769531 69.519531 L 105.550781 72.851562 Z M 111.351562 76.410156 L 109.371094 76.410156 L 108.585938 74.367188 L 104.992188 74.367188 L 104.25 76.410156 L 102.320312 76.410156 L 105.820312 67.425781 L 107.738281 67.425781 Z M 92.753906 76.410156 L 92.753906 67.425781 L 95.46875 67.425781 L 97.097656 73.550781 L 98.707031 67.425781 L 101.433594 67.425781 L 101.433594 76.410156 L 99.75 76.410156 L 99.75 69.335938 L 97.964844 76.410156 L 96.21875 76.410156 L 94.445312 69.335938 L 94.445312 76.410156 Z M 85.527344 71.222656 L 86.871094 71.222656 C 87.738281 71.222656 88.285156 71.191406 88.5 71.109375 C 88.71875 71.035156 88.882812 70.910156 89.007812 70.726562 C 89.128906 70.550781 89.191406 70.324219 89.191406 70.054688 C 89.191406 69.757812 89.109375 69.507812 88.945312 69.324219 C 88.777344 69.136719 88.550781 69.023438 88.261719 68.972656 C 88.117188 68.953125 87.675781 68.941406 86.941406 68.941406 L 85.527344 68.941406 Z M 83.710938 76.410156 L 83.710938 67.425781 L 87.53125 67.425781 C 88.488281 67.425781 89.191406 67.507812 89.625 67.675781 C 90.058594 67.839844 90.410156 68.117188 90.667969 68.53125 C 90.925781 68.941406 91.058594 69.417969 91.058594 69.941406 C 91.058594 70.613281 90.863281 71.167969 90.460938 71.613281 C 90.070312 72.046875 89.46875 72.324219 88.6875 72.4375 C 89.078125 72.664062 89.410156 72.921875 89.65625 73.191406 C 89.914062 73.46875 90.253906 73.953125 90.6875 74.644531 L 91.78125 76.398438 L 89.613281 76.398438 L 88.304688 74.4375 C 87.839844 73.738281 87.519531 73.304688 87.34375 73.117188 C 87.167969 72.933594 86.992188 72.808594 86.796875 72.746094 C 86.601562 72.6875 86.300781 72.644531 85.878906 72.644531 L 85.519531 72.644531 L 85.519531 76.398438 L 83.710938 76.398438 Z M 79.398438 72.851562 L 78.160156 69.519531 L 76.941406 72.851562 Z M 82.742188 76.410156 L 80.757812 76.410156 L 79.984375 74.367188 L 76.394531 74.367188 L 75.652344 76.410156 L 73.71875 76.410156 L 77.21875 67.425781 L 79.140625 67.425781 Z M 65.566406 76.410156 L 65.566406 67.425781 L 67.382812 67.425781 L 67.382812 70.964844 L 70.945312 70.964844 L 70.945312 67.425781 L 72.761719 67.425781 L 72.761719 76.410156 L 70.945312 76.410156 L 70.945312 72.480469 L 67.382812 72.480469 L 67.382812 76.410156 Z M 59.003906 68.941406 L 59.003906 71.488281 L 59.992188 71.488281 C 60.707031 71.488281 61.191406 71.449219 61.429688 71.34375 C 61.664062 71.253906 61.863281 71.109375 61.996094 70.902344 C 62.128906 70.707031 62.203125 70.46875 62.203125 70.199219 C 62.203125 69.871094 62.109375 69.601562 61.914062 69.394531 C 61.726562 69.191406 61.480469 69.054688 61.179688 68.992188 C 60.964844 68.953125 60.53125 68.933594 59.871094 68.933594 L 59.003906 68.933594 Z M 57.1875 76.410156 L 57.1875 67.425781 L 60.097656 67.425781 C 61.199219 67.425781 61.921875 67.46875 62.253906 67.558594 C 62.769531 67.695312 63.203125 67.984375 63.554688 68.4375 C 63.90625 68.890625 64.070312 69.46875 64.070312 70.191406 C 64.070312 70.746094 63.96875 71.210938 63.769531 71.582031 C 63.5625 71.964844 63.316406 72.253906 63.007812 72.46875 C 62.699219 72.6875 62.386719 72.820312 62.066406 72.890625 C 61.632812 72.976562 61.003906 73.027344 60.179688 73.027344 L 58.992188 73.027344 L 58.992188 76.417969 L 57.1875 76.417969 Z M 57.1875 76.410156 " fill-opacity="1" fill-rule="nonzero"/></svg>