<svg width="80" height="80" viewBox="0 0 80 80" fill="none" xmlns="http://www.w3.org/2000/svg">
<circle cx="39.5294" cy="40" r="39.5294" fill="#F5FAFF"/>
<rect x="4.13672" y="4.60724" width="71.8633" height="71.8633" rx="33.9841" fill="#F2F4F6"/>
<path d="M69.4248 34.6803H67.0129V34.556H40.0641V46.5332H56.9865C54.5177 53.5055 47.8838 58.5104 40.0641 58.5104C30.1425 58.5104 22.0983 50.4662 22.0983 40.5446C22.0983 30.623 30.1425 22.5788 40.0641 22.5788C44.6439 22.5788 48.8105 24.3065 51.983 27.1286L60.4524 18.6592C55.1045 13.6752 47.9511 10.6016 40.0641 10.6016C23.5281 10.6016 10.1211 24.0086 10.1211 40.5446C10.1211 57.0807 23.5281 70.4877 40.0641 70.4877C56.6002 70.4877 70.0072 57.0807 70.0072 40.5446C70.0072 38.5369 69.8006 36.5772 69.4248 34.6803Z" fill="#FFC107"/>
<path d="M13.5771 26.607L23.4146 33.8215C26.0764 27.2313 32.5229 22.5783 40.0667 22.5783C44.6464 22.5783 48.8128 24.306 51.9851 27.128L60.4542 18.6589C55.1066 13.6751 47.9534 10.6016 40.0667 10.6016C28.5661 10.6016 18.5924 17.0945 13.5771 26.607Z" fill="#FF3D00"/>
<path d="M40.0747 70.4793C47.8087 70.4793 54.8361 67.5195 60.1493 62.7064L50.8822 54.8646C47.7751 57.2276 43.9783 58.5056 40.0747 58.5025C32.2868 58.5025 25.6742 53.5367 23.183 46.6066L13.4189 54.1295C18.3743 63.8262 28.4378 70.4793 40.0747 70.4793Z" fill="#4CAF50"/>
<path d="M69.423 34.6766H67.0112V34.5523H40.0635V46.5291H56.9851C55.8042 49.8472 53.6771 52.7468 50.8665 54.8694L50.871 54.8664L60.138 62.7082C59.4823 63.304 70.0054 55.5116 70.0054 40.5407C70.0054 38.5331 69.7988 36.5734 69.423 34.6766Z" fill="#1976D2"/>
</svg>
